<?xml version="1.0" encoding="utf-8"?>
<!-- Generator: Adobe Illustrator 26.0.2, SVG Export Plug-In . SVG Version: 6.00 Build 0)  -->
<svg version="1.1" id="Layer_1" xmlns="http://www.w3.org/2000/svg" xmlns:xlink="http://www.w3.org/1999/xlink" x="0px" y="0px"
	 viewBox="0 0 1050 325" style="enable-background:new 0 0 1050 325;" xml:space="preserve">
<style type="text/css">
	.st0{fill:#F1E6CA;}
	.st1{fill:#7F2225;stroke:#000000;stroke-miterlimit:10;}
	.st2{fill:#BEC0C2;}
</style>
<rect class="st0" width="1050" height="325"/>
<circle class="st1" cx="525" cy="162.5" r="130.5"/>
<g>
	<path class="st2" d="M453.5,178.3c-0.7,2.4-1.5,4.4-2.5,6c-1,1.6-2.1,2.9-3.3,3.9c-1.2,1-2.3,1.7-3.4,2.2c-1,0.5-1.9,0.8-2.7,1
		c-0.7,0.1-1.2,0.2-1.3,0.2c-0.3,0-0.6-0.1-0.9-0.4s-0.7-0.6-1-0.9c-0.3-0.4-0.6-0.8-0.8-1.1c-0.2-0.4-0.4-0.8-0.4-1.1
		c0-0.6,0.4-0.9,1.2-0.9c0.4,0,0.9,0,1.3,0.1c0.5,0,1.2,0.1,2.2,0.1c0.9,0,1.9-0.3,2.8-0.8c0.9-0.5,1.8-1.3,2.6-2.3
		c0.8-1,1.4-2.3,1.9-3.9c0.5-1.6,0.7-3.3,0.7-5.3c0-4.2,0-7.6,0-10.3c0-2.7-0.1-4.9-0.2-6.6c-0.1-1.7-0.3-3.1-0.4-4.1
		c-0.2-1-0.4-1.8-0.7-2.6c-0.1-0.3-0.3-0.6-0.6-0.7s-0.5-0.2-0.7-0.3c-0.3-0.1-0.5-0.2-0.6-0.3c-0.2-0.1-0.2-0.4-0.2-0.8
		c0-0.2,0.3-0.6,0.8-1c0.5-0.4,1.1-0.9,1.8-1.4c0.7-0.4,1.4-0.8,2.1-1.2c0.7-0.3,1.2-0.5,1.6-0.5c0.4,0,0.7,0.2,1.1,0.5
		c0.4,0.3,0.6,0.7,0.6,1.2c0,1.3,0,3.1,0.1,5.4c0,2.3,0.1,4.7,0.1,7.3v9.9C454.5,173,454.1,175.9,453.5,178.3z"/>
	<path class="st2" d="M476.2,171.6c-0.6,0-1.1,0.1-1.4,0.2c-0.4,0.1-0.6,0.3-0.8,0.6c-0.2,0.3-0.4,0.6-0.5,1.1
		c-0.2,0.6-0.5,1.4-1,2.2c-0.4,0.9-0.9,1.7-1.3,2.6c-0.4,0.9-0.8,1.6-1.2,2.4c-0.4,0.7-0.6,1.3-0.6,1.6c-0.1,0.7-0.3,1.1-0.5,1.4
		c-0.2,0.2-0.4,0.4-0.7,0.4c-0.4,0-0.9,0.1-1.4,0.1s-1.1,0.1-1.6,0.1s-1,0.1-1.4,0.1c-0.4,0-0.6,0-0.7,0c-0.2,0-0.4-0.1-0.5-0.3
		c-0.1-0.2-0.1-0.4-0.1-0.6c0-0.6,0-0.9,0.1-1.1c0.1-0.2,0.3-0.3,0.6-0.4c0.6-0.2,1.2-0.5,1.9-0.9c0.6-0.4,1.1-1.2,1.6-2.3
		c0.1-0.3,0.4-1,1.1-2.2s1.4-2.6,2.3-4.2c0.9-1.6,1.9-3.4,2.9-5.4s2-3.8,2.9-5.7s1.6-3.6,2.2-5.2c0.6-1.6,0.9-2.9,0.9-3.8
		c0-0.1,0-0.3-0.1-0.5s-0.2-0.5-0.3-0.8c-0.1-0.3-0.2-0.5-0.3-0.8c-0.1-0.2-0.1-0.4-0.1-0.5c0-0.2,0.1-0.4,0.4-0.7
		c0.3-0.2,0.6-0.5,1-0.7c0.4-0.2,0.7-0.4,1.1-0.6s0.6-0.2,0.9-0.2c0.2,0,0.6,0.3,1.1,0.8c0.5,0.5,0.9,1.1,1.3,1.8
		c1.4,2.9,2.9,6.1,4.4,9.4c1.5,3.4,3.5,7.1,5.8,11.1c1.5,2.6,2.7,4.6,3.7,6.1c1,1.5,1.8,2.7,2.4,3.5c0.6,0.8,1,1.3,1.3,1.6
		c0.3,0.3,0.4,0.5,0.4,0.6c0,0.4-0.1,0.8-0.5,0.9s-0.6,0.2-1,0.2c-0.2,0-0.6,0-1-0.1s-0.9-0.1-1.4-0.2c-0.5-0.1-1-0.2-1.4-0.2
		c-0.4-0.1-0.8-0.2-1-0.2c-0.4-0.1-0.7-0.3-0.9-0.8c-0.2-0.4-0.5-0.9-0.6-1.4c-0.1-0.4-0.4-1-0.8-1.9c-0.4-0.9-0.8-1.8-1.3-2.7
		s-0.9-1.7-1.3-2.4c-0.4-0.7-0.7-1.1-0.9-1.2c-0.4-0.2-1.1-0.4-2.1-0.5c-1-0.1-2-0.2-3.2-0.3c-1.1-0.1-2.3-0.1-3.4-0.1s-2,0-2.6,0
		C477.6,171.5,476.9,171.6,476.2,171.6z M483.4,159.2c-0.5-0.9-0.8-1.7-1-2.2s-0.4-0.8-0.6-0.8c-0.1,0-0.2,0.1-0.3,0.3
		c-0.1,0.2-0.2,0.4-0.3,0.7c-0.1,0.3-0.2,0.6-0.3,0.9c-0.1,0.3-0.2,0.6-0.3,0.8l-3.2,6.5c-0.5,0.9-0.8,1.6-1,2
		c-0.2,0.4-0.3,0.7-0.3,0.9c0,0.3,0.4,0.4,1,0.4h11.1L483.4,159.2z"/>
	<path class="st2" d="M510.9,159.8c-0.1-3-0.2-5.1-0.5-6.5c0-0.2-0.1-0.5-0.2-0.7s-0.2-0.4-0.5-0.5c-0.6-0.3-0.9-0.7-0.9-1.1
		c0-0.6,0.4-1.1,1.1-1.6c0.7-0.5,1.5-1,2.5-1.4c0.9-0.4,1.9-0.7,2.9-1s1.8-0.4,2.3-0.4c1.1,0,2.3,0.1,3.7,0.4
		c1.4,0.3,2.7,0.6,3.9,1.1c0.5,0.2,1.1,0.6,1.6,1.2s1,1.1,1.4,1.8c0.4,0.6,0.8,1.3,1,2c0.3,0.7,0.4,1.3,0.4,1.9c0,2.9-0.3,4.8-1,5.9
		c-0.4,0.6-0.9,1.4-1.6,2.1c-0.7,0.8-1.3,1.5-2,2.1c-0.7,0.7-1.4,1.2-2,1.7s-1.1,0.7-1.4,0.7s-0.7-0.1-1.2-0.2
		c-0.5-0.2-0.9-0.4-1.3-0.6s-0.8-0.4-1.1-0.7c-0.3-0.2-0.5-0.4-0.5-0.6c0-0.2,0.1-0.4,0.3-0.5c0.2-0.1,0.6-0.3,1.2-0.4
		c2-0.4,3.5-1.3,4.7-2.6c1.1-1.3,1.7-2.8,1.7-4.4c0-0.6-0.1-1.4-0.2-2.2s-0.4-1.7-0.8-2.5c-0.4-0.8-0.9-1.5-1.5-2.1
		s-1.4-0.9-2.4-0.9c-0.9,0-1.7,0.1-2.5,0.4c-0.8,0.2-1.5,0.6-2.4,1.1c-0.1,0.7-0.2,1.5-0.2,2.5c-0.1,1-0.2,2-0.2,3s-0.1,2.1-0.2,3.1
		c0,1-0.1,1.9-0.1,2.8v16.2c0,2.2-0.3,3.9-0.8,5s-1.4,1.6-2.7,1.6c-0.7,0-1-0.3-1-0.9c0-0.2,0-0.4,0.1-0.6s0.1-0.5,0.2-0.8
		s0.2-0.8,0.2-1.4c0.1-0.6,0.1-1.4,0.1-2.4v-9.1C511,166.2,511,162.8,510.9,159.8z"/>
	<path class="st2" d="M548.9,171.6c-0.6,0-1.1,0.1-1.4,0.2c-0.3,0.1-0.6,0.3-0.8,0.6c-0.2,0.3-0.4,0.6-0.5,1.1
		c-0.2,0.6-0.5,1.4-1,2.2s-0.9,1.7-1.3,2.6s-0.8,1.6-1.2,2.4c-0.3,0.7-0.6,1.3-0.6,1.6c-0.1,0.7-0.3,1.1-0.5,1.4
		c-0.2,0.2-0.4,0.4-0.7,0.4c-0.4,0-0.9,0.1-1.4,0.1s-1.1,0.1-1.6,0.1s-1,0.1-1.4,0.1c-0.4,0-0.7,0-0.7,0c-0.2,0-0.4-0.1-0.5-0.3
		c-0.1-0.2-0.2-0.4-0.2-0.6c0-0.6,0-0.9,0.2-1.1c0.1-0.2,0.3-0.3,0.6-0.4c0.6-0.2,1.2-0.5,1.9-0.9c0.6-0.4,1.2-1.2,1.6-2.3
		c0.1-0.3,0.4-1,1.1-2.2s1.4-2.6,2.3-4.2c0.9-1.6,1.9-3.4,2.9-5.4s2-3.8,2.9-5.7s1.6-3.6,2.2-5.2c0.6-1.6,0.9-2.9,0.9-3.8
		c0-0.1,0-0.3-0.1-0.5s-0.2-0.5-0.3-0.8c-0.1-0.3-0.2-0.5-0.3-0.8c-0.1-0.2-0.1-0.4-0.1-0.5c0-0.2,0.1-0.4,0.4-0.7s0.6-0.5,1-0.7
		s0.7-0.4,1.1-0.6s0.7-0.2,0.9-0.2c0.2,0,0.6,0.3,1.1,0.8c0.5,0.5,0.9,1.1,1.3,1.8c1.4,2.9,2.9,6.1,4.4,9.4s3.5,7.1,5.8,11.1
		c1.5,2.6,2.7,4.6,3.7,6.1c1,1.5,1.8,2.7,2.4,3.5c0.6,0.8,1,1.3,1.3,1.6c0.3,0.3,0.4,0.5,0.4,0.6c0,0.4-0.2,0.8-0.5,0.9
		s-0.6,0.2-1,0.2c-0.2,0-0.6,0-1-0.1c-0.5,0-0.9-0.1-1.4-0.2c-0.5-0.1-1-0.2-1.4-0.2c-0.4-0.1-0.8-0.2-1-0.2
		c-0.4-0.1-0.7-0.3-0.9-0.8s-0.5-0.9-0.6-1.4c-0.1-0.4-0.4-1-0.8-1.9c-0.4-0.9-0.8-1.8-1.3-2.7s-0.9-1.7-1.3-2.4
		c-0.4-0.7-0.7-1.1-0.9-1.2c-0.4-0.2-1.1-0.4-2.1-0.5c-1-0.1-2-0.2-3.2-0.3c-1.1-0.1-2.3-0.1-3.4-0.1s-2,0-2.6,0
		C550.3,171.5,549.5,171.6,548.9,171.6z M556,159.2c-0.5-0.9-0.8-1.7-1-2.2s-0.4-0.8-0.6-0.8c-0.1,0-0.2,0.1-0.3,0.3
		c-0.1,0.2-0.2,0.4-0.3,0.7c-0.1,0.3-0.2,0.6-0.3,0.9c-0.1,0.3-0.2,0.6-0.3,0.8l-3.2,6.5c-0.5,0.9-0.8,1.6-1,2
		c-0.2,0.4-0.3,0.7-0.3,0.9c0,0.3,0.3,0.4,1,0.4h11.1L556,159.2z"/>
	<path class="st2" d="M583.8,159.6c-0.4-1.3-1-2.6-1.9-3.9c-0.8-1.1-1.3-2-1.8-2.7c-0.5-0.7-0.8-1.2-1-1.6c-0.2-0.4-0.4-0.8-0.5-1
		c-0.1-0.2-0.1-0.4-0.1-0.6c0-0.4,0.2-0.8,0.6-1.2s0.9-0.7,1.4-0.7c0.1,0,0.2,0,0.3,0.1c0.1,0.1,0.3,0.2,0.6,0.6
		c0.3,0.3,0.7,0.8,1.2,1.4c0.5,0.6,1.2,1.5,2.1,2.7c2.4,3.1,4.6,5.9,6.6,8.3c2,2.4,4,4.5,5.9,6.4s3.9,3.7,5.8,5.3
		c2,1.6,4.1,3.2,6.4,4.9c0.1-0.9,0.1-1.7,0.2-2.4c0-0.7,0.1-1.4,0.1-2c0-0.6,0-1.2,0.1-1.9c0-0.6,0-1.3,0-2.1c0-2.7,0-5.2-0.1-7.4
		c-0.1-2.2-0.1-4.5-0.2-6.9c0-0.8-0.1-1.5-0.3-2s-0.3-0.9-0.5-1.2c-0.2-0.3-0.3-0.6-0.5-0.9c-0.1-0.2-0.2-0.5-0.2-0.9
		c0-0.4,0.1-0.7,0.4-0.9s0.5-0.4,0.9-0.6s0.7-0.2,1.1-0.3c0.4-0.1,0.7-0.1,1-0.1c0.3,0,0.7,0.1,1,0.2s0.5,0.5,0.5,1
		c0,0.3,0,0.8-0.1,1.4c-0.1,0.6-0.2,1.6-0.3,3c-0.1,1.4-0.2,3.5-0.3,6.2c-0.1,2.7-0.1,6.3-0.1,10.9c0,1.4,0,2.6,0.1,3.6
		s0.1,2,0.2,2.8c0.1,0.8,0.1,1.5,0.2,2.1c0,0.6,0.1,1.2,0.1,1.8c0,0.5-0.1,1-0.4,1.4s-0.5,0.8-0.8,1c-0.3,0.3-0.6,0.5-1,0.6
		c-0.3,0.1-0.6,0.2-0.8,0.2c-0.2,0-0.3-0.2-0.5-0.5c-0.1-0.4-0.3-0.8-0.5-1.2s-0.4-1-0.7-1.5c-0.3-0.5-0.6-1-1.1-1.4
		c-2.4-1.9-4.5-3.5-6.3-4.9c-1.8-1.4-3.3-2.6-4.6-3.7c-1.3-1.1-2.4-2-3.3-2.9c-0.9-0.8-1.7-1.6-2.4-2.3c-0.7-0.7-1.3-1.4-1.8-2
		c-0.5-0.6-1.1-1.3-1.6-2c-0.1,0.9-0.2,2.1-0.2,3.7c-0.1,1.6-0.2,3.2-0.2,5.1c-0.1,1.8-0.2,3.6-0.3,5.5s-0.3,3.5-0.5,5
		c-0.2,0.9-0.4,1.6-0.7,2.1c-0.3,0.4-0.7,0.7-1,0.7c-0.2,0-0.3,0-0.6-0.1c-0.2-0.1-0.4-0.2-0.6-0.4c-0.2-0.2-0.4-0.4-0.5-0.6
		s-0.2-0.4-0.2-0.7c0-0.4,0.1-1,0.4-1.9s0.5-2,0.8-3.4s0.6-3.1,0.8-5.1s0.4-4.4,0.4-7.1C584.3,162.6,584.1,160.9,583.8,159.6z"/>
</g>
</svg>
